<svg xmlns="http://www.w3.org/2000/svg" xmlns:xlink="http://www.w3.org/1999/xlink" viewBox="0 0 1000 1000"><defs><style>      .st0 {        fill: url(#linear-gradient2);      }      .st1 {        fill: url(#linear-gradient1);      }      .st2 {        fill: url(#linear-gradient9);      }      .st3 {        fill: url(#linear-gradient8);      }      .st4 {        fill: url(#radial-gradient);        mix-blend-mode: screen;      }      .st5 {        isolation: isolate;      }      .st6 {        fill: url(#linear-gradient7);      }      .st7 {        fill: url(#linear-gradient4);      }      .st8 {        fill: url(#linear-gradient5);      }      .st9 {        fill: url(#linear-gradient3);      }      .st10 {        fill: url(#linear-gradient6);      }      .st11 {        fill: url(#linear-gradient);      }    </style><linearGradient id="linear-gradient" x1="354" y1="962.6" x2="469.4" y2="489.1" gradientUnits="userSpaceOnUse"><stop offset="0" stop-color="#94c11f"></stop><stop offset="1" stop-color="#62b22f"></stop></linearGradient><linearGradient id="linear-gradient1" x1="390.1" y1="971.4" x2="505.5" y2="497.8" xlink:href="#linear-gradient"></linearGradient><linearGradient id="linear-gradient2" x1="929.3" y1="812.9" x2="502.3" y2="549.4" gradientUnits="userSpaceOnUse"><stop offset="0" stop-color="#f49824"></stop><stop offset="1" stop-color="#ea5526"></stop></linearGradient><linearGradient id="linear-gradient3" x1="948.8" y1="781.3" x2="521.7" y2="517.9" xlink:href="#linear-gradient2"></linearGradient><linearGradient id="linear-gradient4" x1="962.6" y1="215.6" x2="580.4" y2="530.7" gradientUnits="userSpaceOnUse"><stop offset="0" stop-color="#1f82c5"></stop><stop offset="1" stop-color="#27316c"></stop></linearGradient><linearGradient id="linear-gradient5" x1="937.6" y1="185.2" x2="555.3" y2="500.3" xlink:href="#linear-gradient4"></linearGradient><linearGradient id="linear-gradient6" x1="398.3" y1="-3.2" x2="591.1" y2="461.7" gradientUnits="userSpaceOnUse"><stop offset="0" stop-color="#e52829"></stop><stop offset="1" stop-color="#ad2324"></stop></linearGradient><linearGradient id="linear-gradient7" x1="364.6" y1="10.7" x2="557.4" y2="475.7" xlink:href="#linear-gradient6"></linearGradient><linearGradient id="linear-gradient8" x1="16.5" y1="453" x2="524.4" y2="454.7" gradientUnits="userSpaceOnUse"><stop offset="0" stop-color="#9d2f89"></stop><stop offset="1" stop-color="#6a1335"></stop></linearGradient><linearGradient id="linear-gradient9" x1="16.3" y1="503.1" x2="524.3" y2="504.8" xlink:href="#linear-gradient8"></linearGradient><radialGradient id="radial-gradient" cx="430.5" cy="802" fx="430.5" fy="802" r="634.7" gradientUnits="userSpaceOnUse"><stop offset=".2" stop-color="#6e6f72"></stop><stop offset=".3" stop-color="#68696c"></stop><stop offset=".5" stop-color="#595a5c"></stop><stop offset=".7" stop-color="#3f4042"></stop><stop offset=".9" stop-color="#1c1c1d"></stop><stop offset="1" stop-color="#010101"></stop></radialGradient></defs><g class="st5"><g id="Camada_1"><g><g><g><path class="st11" d="M523.3,494.6c-244.5,6.9-299.6,378.8-34.4,359.3-156.1-89.5-12.6-330.6,34.4-359.3Z"></path><path class="st1" d="M455.6,924c0,29.8-24.2,54-54,54s-54-24.2-54-54,24.2-54,54-54,54,24.2,54,54Z"></path></g><g><path class="st0" d="M534,505.7c-69,234.7,267.7,402,331.1,143.8-133.4,120.8-318.3-90.2-331.1-143.8Z"></path><path class="st9" d="M921.4,702.8c28.3,9.2,43.9,39.6,34.6,68-9.2,28.3-39.6,43.9-68,34.6-28.3-9.2-43.9-39.6-34.6-68,9.2-28.3,39.6-43.9,68-34.6Z"></path></g><g><path class="st7" d="M545.6,494.9c201.9,138.1,465.1-130.4,239.1-270.4,73.7,164.2-184.1,274.9-239.1,270.4Z"></path><path class="st8" d="M852.8,187.4c17.5-24.1,51.3-29.5,75.4-11.9,24.1,17.5,29.5,51.3,11.9,75.4-17.5,24.1-51.3,29.5-75.4,11.9-24.1-17.5-29.4-51.3-11.9-75.4Z"></path></g><g><path class="st10" d="M540.8,483.4C734.6,334.1,560.6.8,357.5,172.5c178.9-19.3,204.5,260.1,183.3,310.9Z"></path><path class="st6" d="M343.3,96.3c-17.5-24.1-12.2-57.8,11.9-75.4,24.1-17.5,57.8-12.2,75.4,11.9,17.5,24.1,12.2,57.8-11.9,75.4-24.1,17.5-57.8,12.2-75.4-11.9Z"></path></g><g><path class="st3" d="M526.3,486.3c-82.1-230.4-452.9-167.9-352.4,78.3,36.9-176.1,310.5-114.2,352.4-78.3Z"></path><path class="st2" d="M97,554.6c-28.3,9.2-58.8-6.3-68-34.6-9.2-28.3,6.3-58.8,34.6-68,28.3-9.2,58.8,6.3,68,34.6,9.2,28.3-6.3,58.8-34.6,68Z"></path></g></g><path class="st4" d="M854.2,683.4c-2.1-6.8-4.3-13.5-6.7-20.1,5.9-4,11.8-8.6,17.5-13.8-3,12.3-6.6,23.5-10.8,33.9ZM921.4,702.8c-21.4-7-44.1.2-57.8,16.4,5.5,25.5,8.8,51.8,9.7,78.7,4.4,3.2,9.3,5.7,14.8,7.5,28.3,9.2,58.8-6.3,68-34.6,9.2-28.3-6.3-58.8-34.6-68ZM756,513.7c115.6-52.4,175.9-198,28.7-289.2,43.7,97.3-29.1,175.8-107,222.7,28.7,19.1,54.9,41.4,78.3,66.5ZM864.7,262.7c24.1,17.5,57.8,12.2,75.4-11.9,17.5-24.1,12.2-57.8-11.9-75.4-24.1-17.5-57.8-12.2-75.4,11.9-17.5,24.1-12.2,57.8,11.9,75.4ZM357.5,172.5c124.2-13.4,174.5,117.1,186.6,215.2,20.4,5.2,40.3,11.9,59.5,19.9,79-160.8-73-381.4-246.1-235.1ZM418.6,108.2c24.1-17.5,29.5-51.3,11.9-75.4-17.5-24.1-51.3-29.5-75.4-11.9-24.1,17.5-29.5,51.3-11.9,75.4,17.5,24.1,51.3,29.5,75.4,11.9ZM435.6,374.1c-110.6-66.3-268.8-23.7-278.4,99.5,75.6-62.2,172.5-99.5,278-99.5h.3ZM133.5,494.6c-.4-2.7-1-5.3-1.9-8-9.2-28.3-39.6-43.8-68-34.6-28.3,9.2-43.8,39.6-34.6,68,7.3,22.4,27.7,36.7,50,37.2,16.2-22.6,34.4-43.5,54.5-62.6Z"></path></g></g></g></svg>