<svg xmlns="http://www.w3.org/2000/svg" xmlns:xlink="http://www.w3.org/1999/xlink" viewBox="0 0 1080 300"><defs><style>      .st0 {        fill: url(#linear-gradient10);      }      .st1 {        fill: url(#linear-gradient9);      }      .st2 {        fill: url(#linear-gradient18);      }      .st3 {        fill: url(#linear-gradient6);      }      .st3, .st4, .st5, .st6, .st7, .st8, .st9, .st10 {        fill-rule: evenodd;      }      .st11 {        fill: url(#linear-gradient11);      }      .st12 {        fill: url(#linear-gradient16);      }      .st13 {        fill: url(#radial-gradient);        mix-blend-mode: screen;      }      .st14 {        isolation: isolate;      }      .st4 {        fill: url(#linear-gradient8);      }      .st15 {        fill: url(#linear-gradient12);      }      .st5 {        fill: url(#linear-gradient5);      }      .st6 {        fill: url(#linear-gradient1);      }      .st16 {        fill: #333;      }      .st17 {        fill: url(#linear-gradient14);      }      .st7 {        fill: url(#linear-gradient7);      }      .st18 {        fill: url(#linear-gradient15);      }      .st19 {        fill: url(#linear-gradient17);      }      .st8 {        fill: url(#linear-gradient4);      }      .st20 {        fill: url(#linear-gradient13);      }      .st21 {        fill: url(#linear-gradient);      }      .st9 {        fill: url(#linear-gradient3);      }      .st10 {        fill: url(#linear-gradient2);      }    </style><linearGradient id="linear-gradient" x1="354.2" y1="136.8" x2="381.5" y2="136.8" gradientUnits="userSpaceOnUse"><stop offset="0" stop-color="#8feb02"></stop><stop offset="1" stop-color="#5db602"></stop></linearGradient><linearGradient id="linear-gradient1" x1="407.4" y1="150.8" x2="503.1" y2="150.8" xlink:href="#linear-gradient"></linearGradient><linearGradient id="linear-gradient2" x1="507.3" y1="151.1" x2="575.8" y2="151.1" xlink:href="#linear-gradient"></linearGradient><linearGradient id="linear-gradient3" x1="584.8" y1="139.8" x2="649.9" y2="139.8" xlink:href="#linear-gradient"></linearGradient><linearGradient id="linear-gradient4" x1="662.1" y1="132.2" x2="705.5" y2="132.2" xlink:href="#linear-gradient"></linearGradient><linearGradient id="linear-gradient5" x1="708.7" y1="139.8" x2="774" y2="139.8" xlink:href="#linear-gradient"></linearGradient><linearGradient id="linear-gradient6" x1="786.5" y1="151.3" x2="882.7" y2="151.3" xlink:href="#linear-gradient"></linearGradient><linearGradient id="linear-gradient7" x1="886.3" y1="139.8" x2="951.7" y2="139.8" xlink:href="#linear-gradient"></linearGradient><linearGradient id="linear-gradient8" x1="959.6" y1="150.9" x2="1048" y2="150.9" xlink:href="#linear-gradient"></linearGradient><linearGradient id="linear-gradient9" x1="127.6" y1="287.5" x2="161.3" y2="149.3" xlink:href="#linear-gradient"></linearGradient><linearGradient id="linear-gradient10" x1="138.2" y1="290.1" x2="171.8" y2="151.9" xlink:href="#linear-gradient"></linearGradient><linearGradient id="linear-gradient11" x1="295.5" y1="243.8" x2="170.9" y2="166.9" gradientUnits="userSpaceOnUse"><stop offset="0" stop-color="#f8981d"></stop><stop offset="1" stop-color="#f5541e"></stop></linearGradient><linearGradient id="linear-gradient12" x1="301.2" y1="234.6" x2="176.6" y2="157.7" xlink:href="#linear-gradient11"></linearGradient><linearGradient id="linear-gradient13" x1="305.2" y1="69.5" x2="193.7" y2="161.5" gradientUnits="userSpaceOnUse"><stop offset="0" stop-color="#1b82c7"></stop><stop offset="1" stop-color="#242d6e"></stop></linearGradient><linearGradient id="linear-gradient14" x1="297.9" y1="60.7" x2="186.4" y2="152.6" xlink:href="#linear-gradient13"></linearGradient><linearGradient id="linear-gradient15" x1="140.5" y1="5.7" x2="196.8" y2="141.3" gradientUnits="userSpaceOnUse"><stop offset="0" stop-color="#ed1e24"></stop><stop offset="1" stop-color="#ac2124"></stop></linearGradient><linearGradient id="linear-gradient16" x1="130.7" y1="9.8" x2="187" y2="145.4" xlink:href="#linear-gradient15"></linearGradient><linearGradient id="linear-gradient17" x1="29.2" y1="138.8" x2="177.4" y2="139.3" gradientUnits="userSpaceOnUse"><stop offset="0" stop-color="#9e2b8a"></stop><stop offset="1" stop-color="#6a1335"></stop></linearGradient><linearGradient id="linear-gradient18" x1="29.1" y1="153.4" x2="177.3" y2="153.9" xlink:href="#linear-gradient17"></linearGradient><radialGradient id="radial-gradient" cx="150" cy="240.6" fx="150" fy="240.6" r="185.2" gradientUnits="userSpaceOnUse"><stop offset=".2" stop-color="#6d6e71"></stop><stop offset=".3" stop-color="#67686b"></stop><stop offset=".5" stop-color="#58595b"></stop><stop offset=".7" stop-color="#3e3f41"></stop><stop offset=".9" stop-color="#1b1b1c"></stop><stop offset="1" stop-color="#000"></stop></radialGradient></defs><g class="st14"><g id="Camada_1"><g><g id="Camada_2"><g id="Camada_1-2"><g id="Camada_1-21"><rect class="st21" x="354.2" y="75" width="27.3" height="123.7"></rect><path class="st6" d="M461.7,132.1v-1.3c-.5-2.4-1.9-4.8-4-6.3-2.1-1.3-5.3-2.1-9.7-2.1s-5.7.4-8.4,1.3c-2.7,1-5.3,2.4-7.6,4v70.8h-24.6v-94.8c4-.6,8-1,12-1,4.6-.4,8.6-.6,12.6-.6v9.7h1.3c3.6-4.6,7.6-7.6,11.6-9,4.1-1.2,8.4-1.8,12.6-1.7,3.2,0,6.4.4,9.7,1,3,1,6.1,2.1,8.4,4,2.7,1.8,5,4.2,6.7,7,1.9,3.2,3.1,6.7,3.6,10.3.4,1.2.6,2.4.6,3.6v43.3c0,.4.4,1,.4,1.3.4,1.3.6,2.3,1.7,3,.6.6,1.9,1,3.6,1h10.9v8.4c0,6.3-1.7,10.7-4.4,13-3,2.3-7,3.6-12,3.6-7.6,0-13.3-2.1-17-6.1-4-4.1-6.6-9.3-7.3-14.9-.4-1.5-.6-3.1-.6-4.6s0-3.3-.4-5l.4-36.3c0-.5,0-1.2-.4-1.7"></path><path class="st10" d="M569.8,103.9c.4,3.3,0,6.7,0,10.7s-.3,7.9-1,11.6c-1.8-.6-3.7-1-5.7-1.3-2.3-.6-4.6-1-7-1.3l-7-1h-6.3c-3.6,0-6.1.4-7.6,1.7s-2.3,3.3-1.7,6.7c.5,2.1,1.8,3.9,3.6,5,2.2,1.4,4.5,2.4,7,3.3,3.1,1.3,6.2,2.3,9.3,3.3,3.2,1.3,6.4,3,9.3,5,3,2.1,5.5,4.8,7.6,7.6,2.3,3,4,7,5,12,1.7,10.3-.4,18.3-6.7,24.6-6.3,5.9-16,9-29,9s-11.2-.6-16.6-2.1c-5-1.2-9.8-2.8-14.3-5,0-1.9.4-4,.4-6.1.4-2.3.4-4.4.6-6.3.4-1.7,1-3.6,1.3-5.3s.6-3.2,1.3-4.6c4.4,2.2,8.9,3.9,13.6,5,4.9,1.3,9.9,1.9,14.9,2.1,7,0,9.7-3,8.6-8.6-.3-2.1-1.5-3.7-3.3-4.6-2.3-1.4-4.8-2.6-7.3-3.3-2.7-1-5.7-2.1-9-3.3-3.3-1-6.4-2.7-9.3-4.6-3.1-2.1-5.8-4.6-8-7.6-2.6-3.5-4.1-7.5-4.6-11.6-.9-4.2-.8-8.8.4-13,1-4,3.1-7.7,6.1-10.7s7-5.3,12.4-7c5-1.9,10.9-2.7,17.9-2.7h5.7c1.9.4,4.4.4,6.7.6,2.1.4,4.4.4,6.7,1,1.9.4,4.4.6,6.1,1"></path><path class="st9" d="M645.3,113.9c0,3.6-.4,7.2-1.3,10.7h-23.3v44.9c.4.4.4.6.4,1.3.6,2.7,1.7,4.6,3.6,5.7,1.7,1,4.6,1.3,8,1.3s5.2-.3,7.6-.6c2.2-.5,4.2-1.2,6.3-2.1l1,4c.4,1.5.6,3.1.6,4.6.6,2.2,1,4.4,1.3,6.7,0,2.3.4,4.4.4,6.3-1.4.8-3.1,1.3-4.6,1.7-1.9.6-4,1-6.1,1.3-1.8.4-3.7.6-5.7.6-1.5.3-3.1.4-4.6.4-9.7,0-17-2.3-22.3-6.7s-8.6-10.7-10.3-18.7c0-1.3-.4-3-.4-4.4s-.4-3-.4-4.6v-41.8h-10.7v-21.6h10.7v-20c4.1-1.2,8.4-2.1,12.6-2.7,4.4-.6,8.6-1,12.4-1.3v23.9h24.6c.4,3.6.4,7.3,0,10.9"></path><path class="st8" d="M705.5,184h0c0,6.3-1.7,10.7-4.4,13-3,2.3-7,3.6-12,3.6-7.6,0-13.3-2.1-17-6.1-4-4.1-6.6-9.3-7.3-14.9-.4-1.5-.6-3.1-.6-4.6v-5l-.4-67.2h25v67.6c0,.4.4,1,.4,1.3.4,1.3.6,2.3,1.7,3,.6.6,2.1,1,3.6,1h10.9v8.4h0ZM689.8,75.4c1,5.3.4,9.3-2.3,12.4-2.3,3-5.9,4.6-11.3,4.6s-7-1-9.3-3.3c-2.3-2.2-3.9-5.2-4.4-8.4-1-4.1,0-8.5,2.3-12,2.3-3.3,6.3-5,11.3-5s7,1,9.3,3.3c2.3,2.2,3.9,5.2,4.4,8.4"></path><path class="st5" d="M769.4,113.9c0,3.6-.4,7.2-1.3,10.7h-23.3v44.9c0,.4.4.6.4,1.3,0,2.4,1.5,4.5,3.6,5.7,1.7,1,4.4,1.3,8,1.3s4.9-.3,7.3-.6c2.3-.5,4.5-1.2,6.7-2.1l1,4c.4,1.3.4,3,.6,4.6.4,2.3,1,4.4,1,6.7.4,2.1.6,4.1.6,6.3-1.5.8-3.2,1.4-5,1.7-1.8.6-3.7,1-5.7,1.3-1.8.4-3.7.6-5.7.6-1.7.3-3.3.4-5,.4-9.3,0-17-2.3-22.3-6.7s-8.6-10.7-9.9-18.7c-.3-1.4-.4-2.8-.4-4.4-.3-1.5-.4-3.1-.4-4.6v-41.8h-10.9l.4-21.6h10.7v-20c4.1-1.2,8.4-2.1,12.6-2.7,4.4-.6,8.4-1,12.4-1.3v23.9h24.6c.4,3.6.4,7.3,0,10.9"></path><path class="st3" d="M842.9,186.7c-2.8,4.1-6.4,7.6-10.7,10.3-3.6,2.3-9,3.6-16,3.6s-6.6-.6-9.7-1.7c-3.1-.9-6.1-2.2-8.6-4-2.6-2.1-4.9-4.5-6.7-7.3-1.9-3.1-3.2-6.6-3.7-10.3-.5-2.3-.8-4.6-.6-7l-.4-66.8c4-.4,8-.6,12.4-1s8.6-.4,12.6-.4v66.4c0,.4.4.6.4,1.3.6,3,2.1,5.3,4.4,6.7,2.1,1.7,5.7,2.3,10.3,2.3s5.2-.4,7.6-1c2.6-.3,5.2-1.2,7.3-2.7v-71.8c3.6-.4,7.6-.6,12-1s8.6-.4,12.6-.4v66.2c0,.6,0,1.4.4,1.9v1.3c.3,1.2.9,2.2,1.7,3,.6.6,2.1,1,3.6,1h10.9v8.4c0,6.3-1.3,10.7-4.4,13-2.7,2.3-6.7,3.6-12,3.6s-10.9-1.3-14.3-3.6c-3.6-2.6-6.4-6.2-8-10.3h-1.3v.4h.2Z"></path><path class="st7" d="M947.1,113.9c0,3.6-.4,7.2-1.3,10.7h-23.3v44.9c0,.4.4.6.4,1.3,0,2.4,1.5,4.5,3.6,5.7,1.7,1,4.4,1.3,8,1.3s4.9-.3,7.3-.6c2.3-.5,4.5-1.2,6.7-2.1l1,4c.4,1.3.4,3,.6,4.6.4,2.3.6,4.4,1,6.7.4,2.1.6,4.1.6,6.3-1.5.8-3.2,1.4-5,1.7-1.8.6-3.7,1-5.7,1.3-1.8.4-3.7.6-5.7.6-1.7.3-3.3.4-5,.4-9.3,0-17-2.3-22.3-6.7s-8.6-10.7-10-18.7c-.3-1.4-.4-2.8-.4-4.4-.3-1.5-.4-3.1-.4-4.6v-41.8h-10.9l.4-21.6h10.7v-20c4.1-1.2,8.4-2.1,12.6-2.7,4.4-.6,8.4-1,12.4-1.3v23.9h24.6c.4,3.6.4,7.3,0,10.9"></path><path class="st4" d="M1047.9,145.1c-.4-2.3-.6-4.6-1-6.7-.8-5.9-2.7-11.7-5.7-17-2.4-4.4-5.9-8.2-10-11.3-4-3.3-8.4-5.3-13.3-7-4.5-1.3-9.3-2.1-14-1.9h-2.3c-5.9,0-11.7.9-17.3,3-5,2.2-9.5,5.4-13.3,9.3-3.7,4.5-6.6,9.7-8.4,15.3-2.1,6.7-3.1,13.6-3,20.6,0,2.4,0,4.9.4,7.3.4,2.3.6,4.6,1,6.7,2.1,12.6,7,22,14.9,27.9,7.3,6.1,17,9,27.9,9.3h1.7c5.9,0,11.7-.9,17.3-3,5.2-1.9,9.7-5.2,13.3-9.3,3.9-4.4,6.8-9.4,8.6-14.9,1.9-6.1,3-13,3.3-21,0-2.4,0-4.9-.4-7.3M1016.9,173.1c-2.7,4.4-7,6.7-13,6.7s-8.4-1.3-10.7-3.6c-2.7-2.3-4.4-6.7-5.3-12.4-.4-1.7-.6-3.6-1-6.1,0-2.1-.4-4.4-.4-7,0-10.3,1.3-17.6,4-21.9,3-4.6,7-6.7,12.6-6.7h.6c4.4,0,8,1.3,10.7,4s4.6,7,5.7,13c.6,3.9,1,7.7,1,11.6,0,10.7-1.3,17.9-4.4,22.3"></path></g></g></g><g><path class="st16" d="M358.4,235.3h11.8c9,0,15.1,5.7,15.1,14s-6.1,14-15.1,14h-11.8v-28ZM369.9,259.9c6.9,0,11.4-4.2,11.4-10.5s-4.4-10.5-11.4-10.5h-7.6v21.1h7.6Z"></path><path class="st16" d="M448.9,256.3h-14.9l-3.1,7h-4.1l12.7-28h4l12.7,28h-4.2l-3.1-7ZM447.5,253.1l-6-13.7-6,13.7h12.1Z"></path><path class="st16" d="M548.9,249.3c0-8.3,6.3-14.3,14.8-14.3s8.1,1.5,10.6,4.4l-2.6,2.5c-2.2-2.3-4.8-3.3-7.9-3.3-6.3,0-11,4.6-11,10.8s4.7,10.8,11,10.8,5.7-1.1,7.9-3.4l2.6,2.5c-2.6,2.9-6.3,4.4-10.7,4.4-8.5,0-14.8-6-14.8-14.3Z"></path><path class="st16" d="M637.3,256.3h-14.9l-3.1,7h-4.1l12.7-28h4l12.7,28h-4.2l-3.1-7ZM635.9,253.1l-6-13.7-6,13.7h12.1Z"></path><path class="st16" d="M707.5,263.3l-6-8.6c-.6,0-1.2,0-1.8,0h-6.9v8.5h-4v-28h10.9c7.3,0,11.7,3.7,11.7,9.8s-2.2,7.4-6.2,8.8l6.6,9.4h-4.4ZM707.3,245.1c0-4-2.7-6.3-7.8-6.3h-6.8v12.6h6.8c5.1,0,7.8-2.3,7.8-6.3Z"></path><path class="st16" d="M757.8,235.3h4v28h-4v-28Z"></path><path class="st16" d="M810.3,235.3h11.8c9,0,15.1,5.7,15.1,14s-6.1,14-15.1,14h-11.8v-28ZM821.8,259.9c6.9,0,11.4-4.2,11.4-10.5s-4.4-10.5-11.4-10.5h-7.6v21.1h7.6Z"></path><path class="st16" d="M900.8,256.3h-14.9l-3.1,7h-4.1l12.7-28h4l12.7,28h-4.2l-3.1-7ZM899.4,253.1l-6-13.7-6,13.7h12.1Z"></path><path class="st16" d="M952.3,235.3h11.8c9,0,15.1,5.7,15.1,14s-6.1,14-15.1,14h-11.8v-28ZM963.8,259.9c6.9,0,11.4-4.2,11.4-10.5s-4.4-10.5-11.4-10.5h-7.6v21.1h7.6Z"></path><path class="st16" d="M1045.7,259.9v3.5h-20.3v-28h19.8v3.5h-15.8v8.6h14v3.4h-14v9h16.3Z"></path></g><g><g><g><path class="st1" d="M177,150.9c-71.3,2-87.4,110.5-10,104.8-45.5-26.1-3.7-96.5,10-104.8Z"></path><path class="st0" d="M157.3,276.2c0,8.7-7,15.7-15.7,15.7s-15.7-7-15.7-15.7,7-15.7,15.7-15.7,15.7,7,15.7,15.7Z"></path></g><g><path class="st11" d="M180.1,154.2c-20.1,68.5,78.1,117.3,96.6,42-38.9,35.2-92.9-26.3-96.6-42Z"></path><path class="st15" d="M293.2,211.7c8.3,2.7,12.8,11.6,10.1,19.8-2.7,8.3-11.6,12.8-19.8,10.1-8.3-2.7-12.8-11.6-10.1-19.8,2.7-8.3,11.6-12.8,19.8-10.1Z"></path></g><g><path class="st20" d="M183.5,151c58.9,40.3,135.7-38,69.7-78.9,21.5,47.9-53.7,80.2-69.7,78.9Z"></path><path class="st17" d="M273.2,61.3c5.1-7,15-8.6,22-3.5,7,5.1,8.6,15,3.5,22-5.1,7-15,8.6-22,3.5-7-5.1-8.6-15-3.5-22Z"></path></g><g><path class="st18" d="M182.1,147.7c56.5-43.6,5.8-140.8-53.5-90.7,52.2-5.6,59.7,75.9,53.5,90.7Z"></path><path class="st12" d="M124.5,34.7c-5.1-7-3.6-16.9,3.5-22,7-5.1,16.9-3.6,22,3.5,5.1,7,3.6,16.9-3.5,22-7,5.1-16.9,3.6-22-3.5Z"></path></g><g><path class="st19" d="M177.9,148.5c-24-67.2-132.1-49-102.8,22.8,10.8-51.4,90.6-33.3,102.8-22.8Z"></path><path class="st2" d="M52.7,168.5c-8.3,2.7-17.1-1.8-19.8-10.1-2.7-8.3,1.8-17.1,10.1-19.8,8.3-2.7,17.1,1.8,19.8,10.1,2.7,8.3-1.8,17.1-10.1,19.8Z"></path></g></g><path class="st13" d="M273.6,206c-.6-2-1.3-3.9-2-5.9,1.7-1.2,3.4-2.5,5.1-4-.9,3.6-1.9,6.9-3.2,9.9ZM293.2,211.7c-6.3-2-12.9,0-16.9,4.8,1.6,7.4,2.6,15.1,2.8,23,1.3.9,2.7,1.7,4.3,2.2,8.3,2.7,17.1-1.8,19.8-10.1,2.7-8.3-1.8-17.1-10.1-19.8ZM244.9,156.5c33.7-15.3,51.3-57.8,8.4-84.4,12.7,28.4-8.5,51.3-31.2,65,8.4,5.6,16,12.1,22.8,19.4ZM276.6,83.3c7,5.1,16.9,3.6,22-3.5,5.1-7,3.6-16.9-3.5-22-7-5.1-16.9-3.6-22,3.5-5.1,7-3.6,16.9,3.5,22ZM128.7,57c36.2-3.9,50.9,34.2,54.4,62.8,6,1.5,11.8,3.5,17.4,5.8,23-46.9-21.3-111.3-71.8-68.6ZM146.5,38.2c7-5.1,8.6-15,3.5-22-5.1-7-15-8.6-22-3.5-7,5.1-8.6,15-3.5,22,5.1,7,15,8.6,22,3.5ZM151.4,115.8c-32.3-19.3-78.4-6.9-81.2,29,22.1-18.1,50.3-29,81.1-29h0ZM63.3,150.9c-.1-.8-.3-1.6-.5-2.3-2.7-8.3-11.6-12.8-19.8-10.1-8.3,2.7-12.8,11.6-10.1,19.8,2.1,6.5,8.1,10.7,14.6,10.9,4.7-6.6,10-12.7,15.9-18.3Z"></path></g></g></g></g></svg>