<svg xmlns="http://www.w3.org/2000/svg" xmlns:xlink="http://www.w3.org/1999/xlink" id="Camada_1" viewBox="0 0 1080 1080"><defs><style>      .st0 {        fill: url(#Gradiente_sem_nome_5);      }      .st1 {        fill: url(#Gradiente_sem_nome_53);      }      .st2 {        fill: url(#Gradiente_sem_nome_55);      }      .st3 {        fill: url(#Gradiente_sem_nome_52);      }      .st4 {        fill: url(#Gradiente_sem_nome_54);      }      .st5 {        fill: url(#Gradiente_sem_nome_51);      }    </style><linearGradient id="Gradiente_sem_nome_5" data-name="Gradiente sem nome 5" x1="598.1" y1="708.6" x2="901.8" y2="708.6" gradientUnits="userSpaceOnUse"><stop offset="0" stop-color="#06a751"></stop><stop offset="1" stop-color="#074c2c"></stop></linearGradient><linearGradient id="Gradiente_sem_nome_51" data-name="Gradiente sem nome 5" x1="87.8" y1="561.6" x2="393.8" y2="561.6" xlink:href="#Gradiente_sem_nome_5"></linearGradient><linearGradient id="Gradiente_sem_nome_52" data-name="Gradiente sem nome 5" x1="23.1" y1="597.1" x2="432.5" y2="597.1" xlink:href="#Gradiente_sem_nome_5"></linearGradient><linearGradient id="Gradiente_sem_nome_53" data-name="Gradiente sem nome 5" x1="109.3" y1="288.7" x2="420.3" y2="288.7" xlink:href="#Gradiente_sem_nome_5"></linearGradient><linearGradient id="Gradiente_sem_nome_54" data-name="Gradiente sem nome 5" x1="774" y1="808.2" x2="1056.9" y2="808.2" xlink:href="#Gradiente_sem_nome_5"></linearGradient><linearGradient id="Gradiente_sem_nome_55" data-name="Gradiente sem nome 5" x1="308.7" y1="683.3" x2="668.7" y2="683.3" xlink:href="#Gradiente_sem_nome_5"></linearGradient></defs><path class="st0" d="M901.8,880.1c-18.6-8.9-34.6-36.6-50.7-72.7-38.4-86.3-77.1-220.5-153-259.4-9.8-5-20.3-8.5-31.4-10-20.2-2.8-42.8.7-68.2,12.4,0,0-.2.1-.4.2,36.8,37.8,57.6,76,74.3,112.7,40.2,88.7,84.2,208.9,229.4,216.8Z"></path><g><g><path class="st5" d="M393.8,744.7c-56.5-49.3-244.4-312.1-244.9-426.8-34.3,18.1-57.3,45.7-60.9,78.5-5.3,68.5,117.3,322.4,220.7,408.7,0,0,.1,0,.2,0l77.1-22.6,7.8-37.8Z"></path><path class="st3" d="M387.1,340.4c30.3,24.2,47.7,55.7,45.1,88.5-10.5,94.1-306.4,386-377.6,424.9-.4-2.9-31.5-147.6-31.5-147.6,66.4-39.1,340.3-245,364-365.9Z"></path></g><path class="st1" d="M418.3,371.7c-2.7-8.8-23-72-30.1-95,0,0,.3.9.7,2.6-.2-.8-.5-1.8-.7-2.6-5-16-11.5-30.7-23.3-42.3-12.3-12.2-26.2-21-42-26.4-13.9-4.8-71.5-10.2-86.1-8.2-16.5,2.4-31.8,8.4-46.2,18.1-13.7,9.3-22.9,22.4-30.8,37.2-.2.5-.5,1-.7,1.4.4-.9.7-1.4.7-1.4-1.3,2.4-49.3,91.4-50.6,93.7,117.1-63.6,206.3-55.3,311,29.4-.7-2.1-1.4-4.3-2-6.5Z"></path></g><path class="st4" d="M1056.9,801.3c-97.8,114.7-224.2,87.5-282.9,28.3,7.1-1.1,169.1,9.8,175.8-94l107.1,65.6Z"></path><path class="st2" d="M668.7,538.3c-19.9,5.2-40.8,29.5-63.4,62-53.9,77.6-117.1,202.1-199,226.1-10.6,3.1-21.5,4.5-32.7,3.9-20.4-1.1-41.9-8.7-64.6-24.9-.1,0-.2-.2-.3-.2,56.7-21.1,84.5-57.4,107.8-90.3,56.1-79.6,108.2-195.9,252.3-176.5Z"></path></svg>