<svg xmlns="http://www.w3.org/2000/svg" xmlns:xlink="http://www.w3.org/1999/xlink" id="Camada_1" viewBox="0 0 1080 300"><defs><style>      .st0 {        fill: url(#Gradiente_sem_nome_5);      }      .st1 {        fill: url(#Gradiente_sem_nome_53);      }      .st2 {        fill: #333;        font-family: CocogooseProTrial-Thin, CocogooseProTrial;        font-size: 51px;        font-weight: 200;      }      .st3 {        fill: url(#Gradiente_sem_nome_11);      }      .st4 {        fill: url(#Gradiente_sem_nome_12);      }      .st5 {        fill: url(#Gradiente_sem_nome_55);      }      .st6 {        fill: url(#Gradiente_sem_nome_52);      }      .st7 {        fill: #1e4921;      }      .st8 {        fill: url(#Gradiente_sem_nome_54);      }      .st9 {        fill: #074c2c;      }      .st10 {        fill: url(#Gradiente_sem_nome_10);      }      .st11 {        fill: url(#Gradiente_sem_nome_51);      }      .st12 {        fill: url(#Gradiente_sem_nome_8);      }    </style><linearGradient id="Gradiente_sem_nome_12" data-name="Gradiente sem nome 12" x1="210.3" y1="66.2" x2="280.3" y2="66.2" gradientUnits="userSpaceOnUse"><stop offset="0" stop-color="#06a751"></stop><stop offset="0" stop-color="#074c2c"></stop></linearGradient><linearGradient id="Gradiente_sem_nome_11" data-name="Gradiente sem nome 11" x1="323.2" y1="66.2" x2="412.5" y2="66.2" gradientUnits="userSpaceOnUse"><stop offset="0" stop-color="#06a751"></stop><stop offset="0" stop-color="#074c2c"></stop></linearGradient><linearGradient id="Gradiente_sem_nome_8" data-name="Gradiente sem nome 8" x1="525.6" y1="66.2" x2="532.3" y2="66.2" gradientTransform="translate(848.8) rotate(-180) scale(1 -1)" gradientUnits="userSpaceOnUse"><stop offset="0" stop-color="#06a751"></stop><stop offset="0" stop-color="#074c2c"></stop></linearGradient><linearGradient id="Gradiente_sem_nome_10" data-name="Gradiente sem nome 10" x1="280.3" y1="66.2" x2="286.9" y2="66.2" gradientUnits="userSpaceOnUse"><stop offset="1" stop-color="#074c2c"></stop><stop offset="1" stop-color="#06a751"></stop></linearGradient><linearGradient id="Gradiente_sem_nome_5" data-name="Gradiente sem nome 5" x1="262.7" y1="221.7" x2="391.9" y2="221.7" gradientUnits="userSpaceOnUse"><stop offset="0" stop-color="#06a751"></stop><stop offset="1" stop-color="#074c2c"></stop></linearGradient><linearGradient id="Gradiente_sem_nome_51" data-name="Gradiente sem nome 5" x1="45.7" y1="159.2" x2="175.9" y2="159.2" xlink:href="#Gradiente_sem_nome_5"></linearGradient><linearGradient id="Gradiente_sem_nome_52" data-name="Gradiente sem nome 5" x1="18.2" y1="174.3" x2="192.3" y2="174.3" xlink:href="#Gradiente_sem_nome_5"></linearGradient><linearGradient id="Gradiente_sem_nome_53" data-name="Gradiente sem nome 5" x1="54.8" y1="43.1" x2="187.1" y2="43.1" xlink:href="#Gradiente_sem_nome_5"></linearGradient><linearGradient id="Gradiente_sem_nome_54" data-name="Gradiente sem nome 5" x1="337.5" y1="264.1" x2="457.9" y2="264.1" xlink:href="#Gradiente_sem_nome_5"></linearGradient><linearGradient id="Gradiente_sem_nome_55" data-name="Gradiente sem nome 5" x1="139.7" y1="210.9" x2="292.8" y2="210.9" xlink:href="#Gradiente_sem_nome_5"></linearGradient></defs><rect class="st4" x="210.3" y="63.5" width="70" height="5.4"></rect><rect class="st3" x="323.2" y="63.5" width="89.4" height="5.4"></rect><polygon class="st12" points="323.2 68.9 316.5 63.5 323.2 63.5 323.2 68.9"></polygon><polygon class="st10" points="280.3 68.9 286.9 63.5 280.3 63.5 280.3 68.9"></polygon><g><path class="st9" d="M223.4,146.4c-5.5-3.2-9.8-7.5-12.9-13-3.2-5.5-4.7-11.5-4.7-18.1s1.6-12.6,4.7-18.1c3.2-5.5,7.5-9.8,12.9-12.9,5.5-3.2,11.5-4.8,18.2-4.8s8.1.6,11.8,1.9c3.7,1.3,7.1,3,10.1,5.4.6.5.8.9.8,1.4s-.2.9-.5,1.3l-5.4,7.1c-.5.6-1,.8-1.5.8s-.9-.2-1.3-.5c-2.1-1.4-4.3-2.6-6.7-3.4-2.4-.8-4.8-1.2-7.4-1.2-4,0-7.7,1-11.1,3-3.4,2-6.1,4.8-8.2,8.3-2,3.5-3,7.4-3,11.7s1,8.1,3,11.6,4.7,6.3,8.2,8.3,7.1,3.1,11.1,3.1,5.1-.4,7.3-1.2c2.2-.8,4.5-2,6.8-3.7.5-.3.9-.4,1.3-.4.6,0,1.1.3,1.5.8l5.3,7.1c.4.5.5,1,.5,1.4s-.2.9-.7,1.3c-3.1,2.4-6.5,4.2-10.2,5.5-3.7,1.3-7.7,2-11.8,2-6.6,0-12.7-1.6-18.2-4.8Z"></path><path class="st9" d="M333.7,148.6c0,.5-.1.8-.4,1.1-.3.2-.7.4-1.2.4h-9.7c-1.1,0-1.9-.5-2.2-1.6l-4.3-11.6h-28.9l-4.3,11.6c-.4,1.1-1.1,1.6-2.2,1.6h-9.7c-.6,0-1-.1-1.3-.4-.3-.2-.4-.6-.4-1.1s0-.5.1-.8l25.7-65.5c.4-1.1,1.2-1.6,2.3-1.6h8.5c1.2,0,1.9.5,2.3,1.6l25.6,65.5c0,.3.1.6.1.8ZM311.8,125.3l-9.8-26.4-.6-2.3-.6,2.3-9.8,26.4h20.8Z"></path><path class="st9" d="M354.5,150h-9.2c-1.3,0-2-.7-2-2v-65.3c0-1.3.7-2,2-2h10c1,0,1.8.4,2.4,1.2l32,45.6v-44.9c0-1.3.7-2,2-2h9.1c1.3,0,2,.7,2,2v65.3c0,1.3-.7,2-2,2h-8.9c-.5,0-.9,0-1.3-.3-.4-.2-.7-.5-1.1-.9l-33-47v46.3c0,1.3-.7,2-2,2Z"></path><path class="st9" d="M432.8,146.4c-5.5-3.2-9.8-7.5-12.9-13-3.2-5.5-4.7-11.5-4.7-18.1s1.6-12.6,4.7-18.1c3.2-5.5,7.5-9.8,12.9-12.9,5.5-3.2,11.5-4.8,18.2-4.8s8.1.6,11.8,1.9c3.7,1.3,7.1,3,10.1,5.4.6.5.8.9.8,1.4s-.2.9-.5,1.3l-5.4,7.1c-.5.6-1,.8-1.5.8s-.9-.2-1.3-.5c-2.1-1.4-4.3-2.6-6.7-3.4-2.4-.8-4.8-1.2-7.4-1.2-4,0-7.7,1-11.1,3-3.4,2-6.1,4.8-8.2,8.3-2,3.5-3,7.4-3,11.7s1,8.1,3,11.6,4.7,6.3,8.2,8.3c3.4,2,7.1,3.1,11.1,3.1s5.1-.4,7.3-1.2c2.2-.8,4.5-2,6.8-3.7.5-.3.9-.4,1.3-.4.6,0,1.1.3,1.5.8l5.3,7.1c.4.5.5,1,.5,1.4s-.2.9-.7,1.3c-3.1,2.4-6.5,4.2-10.2,5.5-3.7,1.3-7.7,2-11.8,2-6.6,0-12.7-1.6-18.2-4.8Z"></path><path class="st9" d="M533.4,150h-46.2c-1.3,0-2-.7-2-2v-65.3c0-1.3.7-2,2-2h45.5c1.3,0,2,.7,2,2v8.3c0,1.3-.7,2-2,2h-34.1v15h26.4c1.3,0,2,.7,2,2v7.8c0,1.3-.7,2-2,2h-26.4v17.9h34.8c1.3,0,2,.7,2,2v8.4c0,1.3-.7,2-2,2Z"></path><path class="st9" d="M547.8,148v-65.3c0-1.3.7-2,2-2h26.6c4.7,0,8.9,1,12.5,2.9,3.6,1.9,6.4,4.6,8.4,8.1,2,3.5,3,7.5,3,12s-1,8.5-3,11.8c-2,3.3-4.8,5.8-8.4,7.6l12,24.6c.2.4.2.7.2,1,0,.4-.1.7-.4,1-.3.2-.7.4-1.3.4h-10.8c-1.1,0-1.9-.5-2.3-1.5l-10.2-21.9c-1.1,0-2.2.1-3.3.1h-11.6v21.3c0,1.3-.7,2-2,2h-9.4c-1.3,0-2-.7-2-2ZM581.2,113.4c1.7-.9,3.1-2.3,4.1-3.9,1-1.7,1.5-3.6,1.5-5.7s-.5-4.2-1.5-5.9c-1-1.6-2.3-2.9-4.1-3.7-1.7-.9-3.7-1.3-5.9-1.3h-14.1v22h14c2.3,0,4.3-.5,6-1.4Z"></path></g><g><path class="st0" d="M391.9,294.6c-7.9-3.8-14.7-15.6-21.6-30.9-16.3-36.7-32.8-93.8-65.1-110.3-4.2-2.1-8.6-3.6-13.4-4.2-8.6-1.2-18.2.3-29,5.3,0,0,0,0-.2,0,15.7,16.1,24.5,32.3,31.6,47.9,17.1,37.7,35.8,88.9,97.6,92.2Z"></path><g><g><path class="st11" d="M175.9,237.1c-24-21-103.9-132.7-104.2-181.5-14.6,7.7-24.4,19.4-25.9,33.4-2.3,29.1,49.9,137.1,93.9,173.8,0,0,0,0,0,0l32.8-9.6,3.3-16.1Z"></path><path class="st6" d="M173,65.1c12.9,10.3,20.3,23.7,19.2,37.6-4.5,40-130.3,164.2-160.6,180.7-.2-1.2-13.4-62.8-13.4-62.8,28.2-16.6,144.7-104.2,154.8-155.6Z"></path></g><path class="st1" d="M186.3,78.4c-1.1-3.7-9.8-30.6-12.8-40.4,0,0,.1.4.3,1.1,0-.4-.2-.7-.3-1.1-2.1-6.8-4.9-13-9.9-18-5.2-5.2-11.1-8.9-17.9-11.2-5.9-2-30.4-4.4-36.6-3.5-7,1-13.5,3.6-19.6,7.7-5.8,3.9-9.8,9.5-13.1,15.8-.1.2-.2.4-.3.6.2-.4.3-.6.3-.6-.5,1-21,38.9-21.5,39.9,49.8-27.1,87.7-23.5,132.3,12.5-.3-.9-.6-1.8-.8-2.8Z"></path></g><path class="st8" d="M457.9,261.1c-41.6,48.8-95.4,37.2-120.3,12,3-.5,71.9,4.2,74.8-40l45.6,27.9Z"></path><path class="st5" d="M292.8,149.3c-8.5,2.2-17.4,12.6-26.9,26.4-22.9,33-49.8,86-84.6,96.1-4.5,1.3-9.1,1.9-13.9,1.7-8.7-.5-17.8-3.7-27.5-10.6,0,0-.1,0-.1,0,24.1-9,35.9-24.4,45.8-38.4,23.9-33.8,46-83.3,107.3-75.1Z"></path></g><text class="st2" transform="translate(202.9 49.3)"><tspan x="0" y="0">CAMPANHA DO</tspan></text><path class="st7" d="M285.1,70c4.9-5.1,9.9-10.1,15-15,.2-.2.4-.4.6-.5.3,0,.5-.1.6-.1.3,0,.8.2,1.3.7l14.2,14.1c.4.4.7.8.9,1.2.3.4.4.8.4,1.1s0,.5-.2.7c-.1.2-.3.4-.4.6l-3.3,3.4c-.4.4-.9.6-1.4.6s-1.2-.2-1.5-.5l-10.1-10.2-10.1,10.2c-.3.2-.6.3-.9.3-.2,0-.5,0-.7,0-.5,0-.9-.2-1.3-.6l-3.3-3.3c-.4-.4-.6-.8-.6-1.3s0-.5.2-.8c.1-.4.3-.6.4-.8Z"></path></svg>